<?xml version="1.0" encoding="UTF-8"?>
<svg width="297px" height="49px" viewBox="0 0 297 49" version="1.1" xmlns="http://www.w3.org/2000/svg" xmlns:xlink="http://www.w3.org/1999/xlink">
    <!-- Generator: Sketch 52.5 (67469) - http://www.bohemiancoding.com/sketch -->
    <title>LOGO</title>
    <desc>Created with Sketch.</desc>
    <g id="CG官网" stroke="none" stroke-width="1" fill="none" fill-rule="evenodd">
        <g id="首页_移动端_往上滑动表头固定" transform="translate(-61.000000, -265.000000)">
            <g id="LOGO" transform="translate(20.000000, 231.000000)">
                <rect id="矩形-copy-6" fill-opacity="0.01" fill="#191B1F" opacity="0.08" x="0" y="0" width="370" height="120"></rect>
                <g id="分组-3" transform="translate(41.111111, 34.000000)" fill="#FFFFFF" fill-rule="nonzero">
                    <path d="M84.7998335,16.3103448 L82.7274744,16.3103448 C77.4429587,16.3103448 73.5054764,20.0344828 73.5054764,25 C73.5054764,31 78.0646664,33.6896552 81.4840589,33.6896552 L84.7998335,33.6896552 L84.7998335,36.5862069 L81.4840589,36.5862069 C75.0597458,36.5862069 70.1897019,31.6206897 70.1897019,25 C70.1897019,19.4137931 74.7488919,13.4137931 82.3130026,13.4137931 L84.7998335,13.4137931 L84.7998335,16.3103448 Z M91.7422364,31.3103448 L90.4988209,29.0344828 L98.3737855,24.6896552 C97.3376059,23.6551724 96.5086623,23.137931 94.7471571,23.137931 C91.7422364,23.137931 89.5662594,25.4137931 89.5662594,28.6206897 C89.5662594,31.8275862 91.7422364,34.1034483 94.7471571,34.1034483 C98.1665496,34.1034483 99.513583,32.0344828 100.135291,29.137931 L103.036593,29.5517241 C102.72574,33.7931034 99.3063471,36.8965517 94.7471571,36.8965517 C90.291585,36.8965517 86.4577207,33.4827586 86.4577207,28.6206897 C86.4577207,23.7586207 90.291585,20.3448276 94.7471571,20.3448276 C98.4774034,20.3448276 100.964234,22.3103448 102.414886,25.4137931 L91.7422364,31.3103448 Z M105.523424,20.6551724 L108.321109,20.6551724 L108.321109,22.5172414 L108.424727,22.5172414 C109.460907,20.9655172 110.80794,20.3448276 112.776681,20.3448276 L113.398389,20.3448276 L113.398389,23.137931 L112.983917,23.137931 C110.186232,23.137931 108.528345,24.8965517 108.528345,29.137931 L108.528345,36.5862069 L105.627042,36.5862069 L105.627042,20.6551724 L105.523424,20.6551724 Z M123.760184,23.4482759 L118.061197,23.4482759 L118.061197,31.8275862 C118.061197,33.2758621 118.786522,33.7931034 120.237174,33.7931034 L123.760184,33.7931034 L123.760184,36.5862069 L119.92632,36.5862069 C116.921399,36.5862069 115.263512,34.6206897 115.263512,31.4137931 L115.263512,16.7241379 L118.164815,16.7241379 L118.164815,20.6551724 L123.863802,20.6551724 L123.863802,23.4482759 L123.760184,23.4482759 Z M128.837464,15.3793103 C129.977262,15.3793103 130.598969,16.2068966 130.598969,17.137931 C130.598969,18.0689655 129.977262,18.8965517 128.837464,18.8965517 C127.697667,18.8965517 127.075959,18.0689655 127.075959,17.137931 C127.075959,16.2068966 127.801285,15.3793103 128.837464,15.3793103 Z M127.386813,36.5862069 L127.386813,20.6551724 L130.288115,20.6551724 L130.288115,36.5862069 L127.386813,36.5862069 Z M135.261777,36.5862069 L135.261777,19.2068966 C135.261777,15.5862069 137.64499,13.4137931 140.857147,13.4137931 L143.343978,13.4137931 L143.343978,16.2068966 L141.271619,16.2068966 C139.302877,16.2068966 138.16308,17.137931 138.16308,19.1034483 L138.16308,20.6551724 L142.929506,20.6551724 L142.929506,23.4482759 L138.16308,23.4482759 L138.16308,36.5862069 L135.261777,36.5862069 Z M146.556134,15.3793103 C147.695932,15.3793103 148.317639,16.2068966 148.317639,17.137931 C148.317639,18.0689655 147.695932,18.8965517 146.556134,18.8965517 C145.416337,18.8965517 144.794629,18.0689655 144.794629,17.137931 C144.794629,16.2068966 145.416337,15.3793103 146.556134,15.3793103 Z M145.105483,36.5862069 L145.105483,20.6551724 L148.006786,20.6551724 L148.006786,36.5862069 L145.105483,36.5862069 Z M156.296222,31.3103448 L155.052806,29.0344828 L162.927771,24.6896552 C161.891591,23.6551724 161.062648,23.137931 159.301143,23.137931 C156.296222,23.137931 154.120245,25.4137931 154.120245,28.6206897 C154.120245,31.8275862 156.296222,34.1034483 159.301143,34.1034483 C162.720535,34.1034483 164.067569,32.0344828 164.689276,29.137931 L167.590579,29.5517241 C167.279725,33.7931034 163.860333,36.8965517 159.301143,36.8965517 C154.845571,36.8965517 151.011706,33.4827586 151.011706,28.6206897 C151.011706,23.7586207 154.845571,20.3448276 159.301143,20.3448276 C163.031389,20.3448276 165.51822,22.3103448 166.968871,25.4137931 L156.296222,31.3103448 Z M185.620103,13.4137931 L185.620103,28.2068966 C185.620103,33.4827586 182.304328,36.8965517 177.641521,36.8965517 C172.460623,36.8965517 169.455702,32.9655172 169.455702,28.2068966 C169.455702,23.7586207 173.082331,20.3448276 177.123431,20.3448276 C178.6777,20.3448276 180.231969,20.6551724 181.682621,21.4827586 L181.682621,24.4827586 C180.646441,23.7586207 178.988554,23.137931 177.641521,23.137931 C174.532982,23.137931 172.357005,25.3103448 172.357005,28.6206897 C172.357005,31.8275862 174.532982,34.1034483 177.641521,34.1034483 C180.439205,34.1034483 182.7188,32.0344828 182.7188,27.5862069 L182.7188,13.3103448 L185.620103,13.3103448 L185.620103,13.4137931 Z M216.601871,19.4137931 C214.011423,17.3448276 212.353535,15.8965517 209.141379,15.8965517 C203.960481,15.8965517 200.230235,20.0344828 200.230235,25 C200.230235,29.9655172 203.960481,34.1034483 209.141379,34.1034483 C213.596951,34.1034483 217.430815,31.2068966 217.638051,26.4482759 L209.55585,26.4482759 L209.55585,23.5517241 L220.850207,23.5517241 L220.850207,25.5172414 C220.850207,33.0689655 214.63313,37 209.037761,37 C202.50983,37 196.91446,31.7241379 196.91446,25 C196.91446,18.2758621 202.50983,13 209.037761,13 C212.871625,13 215.565692,14.137931 218.570613,17.137931 L216.601871,19.4137931 Z M228.207082,31.3103448 L226.963667,29.0344828 L234.838631,24.6896552 C233.802452,23.6551724 232.973508,23.137931 231.212003,23.137931 C228.207082,23.137931 226.031105,25.4137931 226.031105,28.6206897 C226.031105,31.8275862 228.207082,34.1034483 231.212003,34.1034483 C234.631395,34.1034483 235.978429,32.0344828 236.600137,29.137931 L239.501439,29.5517241 C239.190585,33.7931034 235.771193,36.8965517 231.212003,36.8965517 C226.756431,36.8965517 222.922567,33.4827586 222.922567,28.6206897 C222.922567,23.7586207 226.756431,20.3448276 231.212003,20.3448276 C234.942249,20.3448276 237.42908,22.3103448 238.879732,25.4137931 L228.207082,31.3103448 Z M241.884652,36.5862069 L241.884652,27.2758621 C241.884652,23.137931 244.785955,20.3448276 248.723437,20.3448276 C252.660919,20.3448276 255.562222,23.137931 255.562222,27.2758621 L255.562222,36.5862069 L252.557302,36.5862069 L252.557302,27.2758621 C252.557302,24.7931034 250.795796,23.137931 248.723437,23.137931 C246.651078,23.137931 244.889573,24.8965517 244.889573,27.2758621 L244.889573,36.5862069 L241.884652,36.5862069 Z M261.572064,15.3793103 C262.711861,15.3793103 263.333569,16.2068966 263.333569,17.137931 C263.333569,18.0689655 262.711861,18.8965517 261.572064,18.8965517 C260.432266,18.8965517 259.810558,18.0689655 259.810558,17.137931 C259.810558,16.2068966 260.432266,15.3793103 261.572064,15.3793103 Z M260.121412,36.5862069 L260.121412,20.6551724 L263.022715,20.6551724 L263.022715,36.5862069 L260.121412,36.5862069 Z M281.259475,20.6551724 L281.259475,29.9655172 C281.259475,34.1034483 278.358172,36.8965517 274.42069,36.8965517 C270.483208,36.8965517 267.581905,34.1034483 267.581905,29.9655172 L267.581905,20.6551724 L270.483208,20.6551724 L270.483208,29.9655172 C270.483208,32.4482759 272.244713,34.1034483 274.317072,34.1034483 C276.389431,34.1034483 278.150936,32.3448276 278.150936,29.9655172 L278.150936,20.6551724 L281.259475,20.6551724 Z M283.746306,33.7931034 L291.932124,33.7931034 C293.279158,33.7931034 293.797247,33.2758621 293.797247,32.2413793 C293.797247,29.3448276 283.746306,30.4827586 283.746306,25 C283.746306,22.2068966 285.715047,20.6551724 289.134439,20.6551724 L295.973224,20.6551724 L295.973224,23.4482759 L288.61635,23.4482759 C287.165698,23.4482759 286.751226,23.862069 286.751226,24.7931034 C286.751226,27.5862069 296.802168,26.3448276 296.802168,32.0344828 C296.802168,35.0344828 294.729809,36.4827586 291.828506,36.4827586 L283.642688,36.4827586 L283.642688,33.7931034 L283.746306,33.7931034 Z" id="Combined-Shape-Copy"></path>
                    <g id="Group-3">
                        <path d="M15.816557,28.8453895 L15.816557,14.8716559 L40.5169493,14.8716559 L40.5169493,20.3559864 L21.287693,20.3559864 L21.287693,28.8453895 L30.3444579,28.8453895 L30.3444579,34.32972 L21.287693,34.32972 L21.287693,43.318185 L44.1669893,43.318185 L44.1669893,34.3487871 L35.5754479,34.3487871 L35.5754479,28.8644566 L49.6381253,28.8644566 L49.6381253,48.8025155 L15.816557,48.8025155 L15.816557,34.32972 L0.397900804,34.32972 L0.397900804,0.398860399 L31.4839011,0.398860399 L31.4839011,5.88319088 L5.86903686,5.88319088 L5.86903686,28.8453895 L15.816557,28.8453895 Z" id="Combined-Shape"></path>
                    </g>
                </g>
            </g>
        </g>
    </g>
</svg>