<?xml version="1.0" encoding="UTF-8"?>
<svg width="200px" height="200px" viewBox="0 0 200 200" version="1.1" xmlns="http://www.w3.org/2000/svg" xmlns:xlink="http://www.w3.org/1999/xlink">
    <!-- Generator: Sketch 52.5 (67469) - http://www.bohemiancoding.com/sketch -->
    <title>Group</title>
    <desc>Created with Sketch.</desc>
    <g id="CG官网" stroke="none" stroke-width="1" fill="none" fill-rule="evenodd">
        <g id="首页_01">
            <g id="Group">
                <rect id="Rectangle-2" fill="#0B0B0B" opacity="0.98" x="0" y="0" width="200" height="200"></rect>
                <path d="M47.7366255,137.793103 L46.6392318,137.793103 C43.8408779,137.793103 41.7558299,139.810345 41.7558299,142.5 C41.7558299,145.75 44.170096,147.206897 45.9807956,147.206897 L47.7366255,147.206897 L47.7366255,148.775862 L45.9807956,148.775862 C42.5788752,148.775862 40,146.086207 40,142.5 C40,139.474138 42.4142661,136.224138 46.4197531,136.224138 L47.7366255,136.224138 L47.7366255,137.793103 Z M51.4128944,145.918103 L50.7544582,144.685345 L54.9245542,142.331897 C54.3758573,141.771552 53.9368999,141.491379 53.0041152,141.491379 C51.4128944,141.491379 50.260631,142.724138 50.260631,144.461207 C50.260631,146.198276 51.4128944,147.431034 53.0041152,147.431034 C54.8148148,147.431034 55.5281207,146.310345 55.8573388,144.741379 L57.39369,144.965517 C57.2290809,147.262931 55.4183813,148.943966 53.0041152,148.943966 C50.6447188,148.943966 48.6145405,147.094828 48.6145405,144.461207 C48.6145405,141.827586 50.6447188,139.978448 53.0041152,139.978448 C54.9794239,139.978448 56.2962963,141.043103 57.0644719,142.724138 L51.4128944,145.918103 Z M58.7105624,140.146552 L60.1920439,140.146552 L60.1920439,141.155172 L60.2469136,141.155172 C60.7956104,140.314655 61.5089163,139.978448 62.5514403,139.978448 L62.8806584,139.978448 L62.8806584,141.491379 L62.6611797,141.491379 C61.1796982,141.491379 60.3017833,142.443966 60.3017833,144.741379 L60.3017833,148.775862 L58.7654321,148.775862 L58.7654321,140.146552 L58.7105624,140.146552 Z M68.3676269,141.659483 L65.3497942,141.659483 L65.3497942,146.198276 C65.3497942,146.982759 65.733882,147.262931 66.5020576,147.262931 L68.3676269,147.262931 L68.3676269,148.775862 L66.3374486,148.775862 C64.7462277,148.775862 63.8683128,147.711207 63.8683128,145.974138 L63.8683128,138.017241 L65.4046639,138.017241 L65.4046639,140.146552 L68.4224966,140.146552 L68.4224966,141.659483 L68.3676269,141.659483 Z M71.0562414,137.288793 C71.659808,137.288793 71.9890261,137.737069 71.9890261,138.241379 C71.9890261,138.74569 71.659808,139.193966 71.0562414,139.193966 C70.4526749,139.193966 70.1234568,138.74569 70.1234568,138.241379 C70.1234568,137.737069 70.5075446,137.288793 71.0562414,137.288793 Z M70.2880658,148.775862 L70.2880658,140.146552 L71.824417,140.146552 L71.824417,148.775862 L70.2880658,148.775862 Z M74.4581619,148.775862 L74.4581619,139.362069 C74.4581619,137.400862 75.7201646,136.224138 77.4211248,136.224138 L78.7379973,136.224138 L78.7379973,137.737069 L77.6406036,137.737069 C76.5980796,137.737069 75.994513,138.241379 75.994513,139.306034 L75.994513,140.146552 L78.5185185,140.146552 L78.5185185,141.659483 L75.994513,141.659483 L75.994513,148.775862 L74.4581619,148.775862 Z M80.4389575,137.288793 C81.042524,137.288793 81.3717421,137.737069 81.3717421,138.241379 C81.3717421,138.74569 81.042524,139.193966 80.4389575,139.193966 C79.8353909,139.193966 79.5061728,138.74569 79.5061728,138.241379 C79.5061728,137.737069 79.8353909,137.288793 80.4389575,137.288793 Z M79.6707819,148.775862 L79.6707819,140.146552 L81.2071331,140.146552 L81.2071331,148.775862 L79.6707819,148.775862 Z M85.5967078,145.918103 L84.9382716,144.685345 L89.1083676,142.331897 C88.5596708,141.771552 88.1207133,141.491379 87.1879287,141.491379 C85.5967078,141.491379 84.4444444,142.724138 84.4444444,144.461207 C84.4444444,146.198276 85.5967078,147.431034 87.1879287,147.431034 C88.9986283,147.431034 89.7119342,146.310345 90.0411523,144.741379 L91.5775034,144.965517 C91.4128944,147.262931 89.6021948,148.943966 87.1879287,148.943966 C84.8285322,148.943966 82.7983539,147.094828 82.7983539,144.461207 C82.7983539,141.827586 84.8285322,139.978448 87.1879287,139.978448 C89.1632373,139.978448 90.4801097,141.043103 91.2482853,142.724138 L85.5967078,145.918103 Z M101.124829,136.224138 L101.124829,144.237069 C101.124829,147.094828 99.3689986,148.943966 96.8998628,148.943966 C94.1563786,148.943966 92.5651578,146.814655 92.5651578,144.237069 C92.5651578,141.827586 94.4855967,139.978448 96.6255144,139.978448 C97.4485597,139.978448 98.2716049,140.146552 99.0397805,140.594828 L99.0397805,142.219828 C98.4910837,141.827586 97.6131687,141.491379 96.8998628,141.491379 C95.2537723,141.491379 94.1015089,142.668103 94.1015089,144.461207 C94.1015089,146.198276 95.2537723,147.431034 96.8998628,147.431034 C98.3813443,147.431034 99.5884774,146.310345 99.5884774,143.900862 L99.5884774,136.168103 L101.124829,136.168103 L101.124829,136.224138 Z M117.530864,139.474138 C116.159122,138.353448 115.281207,137.568966 113.580247,137.568966 C110.836763,137.568966 108.861454,139.810345 108.861454,142.5 C108.861454,145.189655 110.836763,147.431034 113.580247,147.431034 C115.939643,147.431034 117.969822,145.862069 118.079561,143.284483 L113.799726,143.284483 L113.799726,141.715517 L119.780521,141.715517 L119.780521,142.780172 C119.780521,146.87069 116.48834,149 113.525377,149 C110.068587,149 107.105624,146.142241 107.105624,142.5 C107.105624,138.857759 110.068587,136 113.525377,136 C115.555556,136 116.982167,136.616379 118.573388,138.241379 L117.530864,139.474138 Z M123.676269,145.918103 L123.017833,144.685345 L127.187929,142.331897 C126.639232,141.771552 126.200274,141.491379 125.26749,141.491379 C123.676269,141.491379 122.524005,142.724138 122.524005,144.461207 C122.524005,146.198276 123.676269,147.431034 125.26749,147.431034 C127.078189,147.431034 127.791495,146.310345 128.120713,144.741379 L129.657064,144.965517 C129.492455,147.262931 127.681756,148.943966 125.26749,148.943966 C122.908093,148.943966 120.877915,147.094828 120.877915,144.461207 C120.877915,141.827586 122.908093,139.978448 125.26749,139.978448 C127.242798,139.978448 128.559671,141.043103 129.327846,142.724138 L123.676269,145.918103 Z M130.919067,148.775862 L130.919067,143.732759 C130.919067,141.491379 132.455418,139.978448 134.540466,139.978448 C136.625514,139.978448 138.161866,141.491379 138.161866,143.732759 L138.161866,148.775862 L136.570645,148.775862 L136.570645,143.732759 C136.570645,142.387931 135.63786,141.491379 134.540466,141.491379 C133.443073,141.491379 132.510288,142.443966 132.510288,143.732759 L132.510288,148.775862 L130.919067,148.775862 Z M141.344307,137.288793 C141.947874,137.288793 142.277092,137.737069 142.277092,138.241379 C142.277092,138.74569 141.947874,139.193966 141.344307,139.193966 C140.740741,139.193966 140.411523,138.74569 140.411523,138.241379 C140.411523,137.737069 140.740741,137.288793 141.344307,137.288793 Z M140.576132,148.775862 L140.576132,140.146552 L142.112483,140.146552 L142.112483,148.775862 L140.576132,148.775862 Z M151.769547,140.146552 L151.769547,145.189655 C151.769547,147.431034 150.233196,148.943966 148.148148,148.943966 C146.0631,148.943966 144.526749,147.431034 144.526749,145.189655 L144.526749,140.146552 L146.0631,140.146552 L146.0631,145.189655 C146.0631,146.534483 146.995885,147.431034 148.093278,147.431034 C149.190672,147.431034 150.123457,146.478448 150.123457,145.189655 L150.123457,140.146552 L151.769547,140.146552 Z M153.08642,147.262931 L157.421125,147.262931 C158.134431,147.262931 158.408779,146.982759 158.408779,146.422414 C158.408779,144.853448 153.08642,145.469828 153.08642,142.5 C153.08642,140.987069 154.128944,140.146552 155.939643,140.146552 L159.561043,140.146552 L159.561043,141.659483 L155.665295,141.659483 C154.897119,141.659483 154.677641,141.883621 154.677641,142.387931 C154.677641,143.900862 160,143.228448 160,146.310345 C160,147.935345 158.902606,148.719828 157.366255,148.719828 L153.03155,148.719828 L153.03155,147.262931 L153.08642,147.262931 Z" id="Combined-Shape-Copy" fill="#FFFFFF" fill-rule="nonzero"></path>
                <g id="Group-3" transform="translate(74.000000, 61.000000)" fill="#FFFFFF" fill-rule="nonzero">
                    <path d="M15.1428571,27.6680266 L15.1428571,14.2646495 L38.7911462,14.2646495 L38.7911462,19.5251298 L20.3809524,19.5251298 L20.3809524,27.6680266 L29.0519481,27.6680266 L29.0519481,32.9285069 L20.3809524,32.9285069 L20.3809524,41.5500958 L42.2857143,41.5500958 L42.2857143,32.9467958 L34.0601261,32.9467958 L34.0601261,27.6863155 L47.5238095,27.6863155 L47.5238095,46.8105761 L15.1428571,46.8105761 L15.1428571,32.9285069 L0.380952381,32.9285069 L0.380952381,0.382580383 L30.1428571,0.382580383 L30.1428571,5.64306064 L5.61904762,5.64306064 L5.61904762,27.6680266 L15.1428571,27.6680266 Z" id="Combined-Shape"></path>
                </g>
            </g>
        </g>
    </g>
</svg>